<mxfile host="app.diagrams.net" modified="2023-04-02T19:46:45.329Z" agent="Mozilla/5.0 (Windows NT 10.0; Win64; x64) AppleWebKit/537.36 (KHTML, like Gecko) Chrome/111.0.0.0 Safari/537.36" etag="ZULAMD8vksq1of4irl8P" version="21.1.2" type="device">
  <diagram name="Page-1" id="e56a1550-8fbb-45ad-956c-1786394a9013">
    <mxGraphModel dx="2649" dy="1706" grid="1" gridSize="10" guides="1" tooltips="1" connect="1" arrows="1" fold="1" page="1" pageScale="1" pageWidth="1100" pageHeight="850" background="none" math="0" shadow="0">
      <root>
        <mxCell id="0" />
        <mxCell id="1" parent="0" />
        <mxCell id="in6T1arlZuOgRu6QzFgH-16" value="КЛИЕНТ" style="rounded=0;whiteSpace=wrap;html=1;" vertex="1" parent="1">
          <mxGeometry x="130" y="175" width="120" height="60" as="geometry" />
        </mxCell>
        <mxCell id="in6T1arlZuOgRu6QzFgH-76" style="edgeStyle=orthogonalEdgeStyle;rounded=0;orthogonalLoop=1;jettySize=auto;html=1;exitX=1;exitY=0.5;exitDx=0;exitDy=0;entryX=0;entryY=0.5;entryDx=0;entryDy=0;endArrow=none;endFill=0;" edge="1" parent="1" source="in6T1arlZuOgRu6QzFgH-17" target="in6T1arlZuOgRu6QzFgH-73">
          <mxGeometry relative="1" as="geometry">
            <Array as="points">
              <mxPoint x="1040" y="205" />
              <mxPoint x="1040" y="415" />
              <mxPoint x="110" y="415" />
              <mxPoint x="110" y="470" />
            </Array>
          </mxGeometry>
        </mxCell>
        <mxCell id="in6T1arlZuOgRu6QzFgH-17" value="ПРОДУКТ" style="rounded=0;whiteSpace=wrap;html=1;" vertex="1" parent="1">
          <mxGeometry x="835" y="175" width="120" height="60" as="geometry" />
        </mxCell>
        <mxCell id="in6T1arlZuOgRu6QzFgH-18" value="ЗАКАЗ" style="rounded=0;whiteSpace=wrap;html=1;" vertex="1" parent="1">
          <mxGeometry x="490" y="175" width="120" height="60" as="geometry" />
        </mxCell>
        <mxCell id="in6T1arlZuOgRu6QzFgH-19" value="ПОСТАВКА" style="rounded=0;whiteSpace=wrap;html=1;" vertex="1" parent="1">
          <mxGeometry x="470" y="440" width="120" height="60" as="geometry" />
        </mxCell>
        <mxCell id="in6T1arlZuOgRu6QzFgH-20" value="ПОСТАВЩИК" style="rounded=0;whiteSpace=wrap;html=1;" vertex="1" parent="1">
          <mxGeometry x="835" y="440" width="120" height="60" as="geometry" />
        </mxCell>
        <mxCell id="in6T1arlZuOgRu6QzFgH-21" value="&lt;u&gt;&lt;b&gt;ID&lt;/b&gt;&lt;/u&gt;" style="ellipse;whiteSpace=wrap;html=1;" vertex="1" parent="1">
          <mxGeometry x="30" y="270" width="110" height="50" as="geometry" />
        </mxCell>
        <mxCell id="in6T1arlZuOgRu6QzFgH-22" value="ФИО" style="ellipse;whiteSpace=wrap;html=1;" vertex="1" parent="1">
          <mxGeometry x="190" y="345" width="110" height="50" as="geometry" />
        </mxCell>
        <mxCell id="in6T1arlZuOgRu6QzFgH-23" value="Адрес" style="ellipse;whiteSpace=wrap;html=1;" vertex="1" parent="1">
          <mxGeometry x="230" y="270" width="110" height="50" as="geometry" />
        </mxCell>
        <mxCell id="in6T1arlZuOgRu6QzFgH-24" value="Наименование продукта" style="ellipse;whiteSpace=wrap;html=1;" vertex="1" parent="1">
          <mxGeometry x="840" y="315" width="110" height="50" as="geometry" />
        </mxCell>
        <mxCell id="in6T1arlZuOgRu6QzFgH-25" value="Номер телефона" style="ellipse;whiteSpace=wrap;html=1;" vertex="1" parent="1">
          <mxGeometry x="70" y="345" width="110" height="50" as="geometry" />
        </mxCell>
        <mxCell id="in6T1arlZuOgRu6QzFgH-26" value="&lt;b&gt;&lt;u&gt;ID&lt;/u&gt;&lt;/b&gt;" style="ellipse;whiteSpace=wrap;html=1;" vertex="1" parent="1">
          <mxGeometry x="760" y="265" width="110" height="50" as="geometry" />
        </mxCell>
        <mxCell id="in6T1arlZuOgRu6QzFgH-27" value="" style="endArrow=none;html=1;rounded=0;exitX=0.5;exitY=0;exitDx=0;exitDy=0;entryX=0.5;entryY=1;entryDx=0;entryDy=0;" edge="1" parent="1" source="in6T1arlZuOgRu6QzFgH-21" target="in6T1arlZuOgRu6QzFgH-16">
          <mxGeometry width="50" height="50" relative="1" as="geometry">
            <mxPoint x="420" y="245" as="sourcePoint" />
            <mxPoint x="470" y="195" as="targetPoint" />
          </mxGeometry>
        </mxCell>
        <mxCell id="in6T1arlZuOgRu6QzFgH-28" value="" style="endArrow=none;html=1;rounded=0;exitX=0.5;exitY=0;exitDx=0;exitDy=0;entryX=0.5;entryY=1;entryDx=0;entryDy=0;" edge="1" parent="1" source="in6T1arlZuOgRu6QzFgH-22" target="in6T1arlZuOgRu6QzFgH-16">
          <mxGeometry width="50" height="50" relative="1" as="geometry">
            <mxPoint x="420" y="245" as="sourcePoint" />
            <mxPoint x="470" y="195" as="targetPoint" />
          </mxGeometry>
        </mxCell>
        <mxCell id="in6T1arlZuOgRu6QzFgH-29" value="" style="endArrow=none;html=1;rounded=0;entryX=0.5;entryY=1;entryDx=0;entryDy=0;exitX=0.5;exitY=0;exitDx=0;exitDy=0;" edge="1" parent="1" source="in6T1arlZuOgRu6QzFgH-25" target="in6T1arlZuOgRu6QzFgH-16">
          <mxGeometry width="50" height="50" relative="1" as="geometry">
            <mxPoint x="420" y="245" as="sourcePoint" />
            <mxPoint x="470" y="195" as="targetPoint" />
          </mxGeometry>
        </mxCell>
        <mxCell id="in6T1arlZuOgRu6QzFgH-30" value="" style="endArrow=none;html=1;rounded=0;exitX=0.5;exitY=0;exitDx=0;exitDy=0;entryX=0.5;entryY=1;entryDx=0;entryDy=0;" edge="1" parent="1" source="in6T1arlZuOgRu6QzFgH-23" target="in6T1arlZuOgRu6QzFgH-16">
          <mxGeometry width="50" height="50" relative="1" as="geometry">
            <mxPoint x="420" y="245" as="sourcePoint" />
            <mxPoint x="190" y="245" as="targetPoint" />
          </mxGeometry>
        </mxCell>
        <mxCell id="in6T1arlZuOgRu6QzFgH-31" value="Дата заказа" style="ellipse;whiteSpace=wrap;html=1;" vertex="1" parent="1">
          <mxGeometry x="570" y="270" width="110" height="50" as="geometry" />
        </mxCell>
        <mxCell id="in6T1arlZuOgRu6QzFgH-32" value="&lt;b&gt;&lt;u&gt;ID&lt;/u&gt;&lt;/b&gt;" style="ellipse;whiteSpace=wrap;html=1;" vertex="1" parent="1">
          <mxGeometry x="420" y="270" width="110" height="50" as="geometry" />
        </mxCell>
        <mxCell id="in6T1arlZuOgRu6QzFgH-33" value="Тип продукта" style="ellipse;whiteSpace=wrap;html=1;" vertex="1" parent="1">
          <mxGeometry x="920" y="265" width="110" height="50" as="geometry" />
        </mxCell>
        <mxCell id="in6T1arlZuOgRu6QzFgH-34" value="" style="endArrow=none;html=1;rounded=0;entryX=0.5;entryY=0;entryDx=0;entryDy=0;exitX=0.5;exitY=1;exitDx=0;exitDy=0;" edge="1" parent="1" source="in6T1arlZuOgRu6QzFgH-17" target="in6T1arlZuOgRu6QzFgH-26">
          <mxGeometry width="50" height="50" relative="1" as="geometry">
            <mxPoint x="850" y="245" as="sourcePoint" />
            <mxPoint x="820" y="15" as="targetPoint" />
          </mxGeometry>
        </mxCell>
        <mxCell id="in6T1arlZuOgRu6QzFgH-35" value="" style="endArrow=none;html=1;rounded=0;exitX=0.5;exitY=0;exitDx=0;exitDy=0;entryX=0.5;entryY=1;entryDx=0;entryDy=0;" edge="1" parent="1" source="in6T1arlZuOgRu6QzFgH-24" target="in6T1arlZuOgRu6QzFgH-17">
          <mxGeometry width="50" height="50" relative="1" as="geometry">
            <mxPoint x="770" y="65" as="sourcePoint" />
            <mxPoint x="920" y="225" as="targetPoint" />
          </mxGeometry>
        </mxCell>
        <mxCell id="in6T1arlZuOgRu6QzFgH-36" value="" style="endArrow=none;html=1;rounded=0;exitX=0.5;exitY=0;exitDx=0;exitDy=0;entryX=0.5;entryY=1;entryDx=0;entryDy=0;" edge="1" parent="1" source="in6T1arlZuOgRu6QzFgH-33" target="in6T1arlZuOgRu6QzFgH-17">
          <mxGeometry width="50" height="50" relative="1" as="geometry">
            <mxPoint x="770" y="65" as="sourcePoint" />
            <mxPoint x="820" y="15" as="targetPoint" />
          </mxGeometry>
        </mxCell>
        <mxCell id="in6T1arlZuOgRu6QzFgH-39" value="Количество продуктов" style="ellipse;whiteSpace=wrap;html=1;" vertex="1" parent="1">
          <mxGeometry x="495" y="320" width="110" height="50" as="geometry" />
        </mxCell>
        <mxCell id="in6T1arlZuOgRu6QzFgH-40" value="" style="endArrow=none;html=1;rounded=0;exitX=0.5;exitY=1;exitDx=0;exitDy=0;entryX=0.5;entryY=0;entryDx=0;entryDy=0;" edge="1" parent="1" source="in6T1arlZuOgRu6QzFgH-18" target="in6T1arlZuOgRu6QzFgH-32">
          <mxGeometry width="50" height="50" relative="1" as="geometry">
            <mxPoint x="340" y="210" as="sourcePoint" />
            <mxPoint x="390" y="160" as="targetPoint" />
          </mxGeometry>
        </mxCell>
        <mxCell id="in6T1arlZuOgRu6QzFgH-41" value="" style="endArrow=none;html=1;rounded=0;entryX=0.5;entryY=1;entryDx=0;entryDy=0;exitX=0.5;exitY=0;exitDx=0;exitDy=0;" edge="1" parent="1" source="in6T1arlZuOgRu6QzFgH-39" target="in6T1arlZuOgRu6QzFgH-18">
          <mxGeometry width="50" height="50" relative="1" as="geometry">
            <mxPoint x="340" y="210" as="sourcePoint" />
            <mxPoint x="390" y="160" as="targetPoint" />
          </mxGeometry>
        </mxCell>
        <mxCell id="in6T1arlZuOgRu6QzFgH-42" value="" style="endArrow=none;html=1;rounded=0;entryX=0.5;entryY=1;entryDx=0;entryDy=0;exitX=0.5;exitY=0;exitDx=0;exitDy=0;" edge="1" parent="1" source="in6T1arlZuOgRu6QzFgH-31" target="in6T1arlZuOgRu6QzFgH-18">
          <mxGeometry width="50" height="50" relative="1" as="geometry">
            <mxPoint x="340" y="210" as="sourcePoint" />
            <mxPoint x="390" y="160" as="targetPoint" />
          </mxGeometry>
        </mxCell>
        <mxCell id="in6T1arlZuOgRu6QzFgH-43" value="&lt;u&gt;&lt;b&gt;ID&lt;/b&gt;&lt;/u&gt;" style="ellipse;whiteSpace=wrap;html=1;" vertex="1" parent="1">
          <mxGeometry x="410" y="530" width="110" height="50" as="geometry" />
        </mxCell>
        <mxCell id="in6T1arlZuOgRu6QzFgH-45" value="Количество поставляемого сырья" style="ellipse;whiteSpace=wrap;html=1;" vertex="1" parent="1">
          <mxGeometry x="475" y="580" width="110" height="50" as="geometry" />
        </mxCell>
        <mxCell id="in6T1arlZuOgRu6QzFgH-46" value="Дата поставки" style="ellipse;whiteSpace=wrap;html=1;" vertex="1" parent="1">
          <mxGeometry x="540" y="530" width="110" height="50" as="geometry" />
        </mxCell>
        <mxCell id="in6T1arlZuOgRu6QzFgH-47" value="Адрес" style="ellipse;whiteSpace=wrap;html=1;" vertex="1" parent="1">
          <mxGeometry x="895" y="590" width="110" height="50" as="geometry" />
        </mxCell>
        <mxCell id="in6T1arlZuOgRu6QzFgH-48" value="&lt;u&gt;&lt;b&gt;ID&lt;/b&gt;&lt;/u&gt;" style="ellipse;whiteSpace=wrap;html=1;" vertex="1" parent="1">
          <mxGeometry x="735" y="530" width="110" height="50" as="geometry" />
        </mxCell>
        <mxCell id="in6T1arlZuOgRu6QzFgH-49" value="ФИО" style="ellipse;whiteSpace=wrap;html=1;" vertex="1" parent="1">
          <mxGeometry x="775" y="590" width="110" height="50" as="geometry" />
        </mxCell>
        <mxCell id="in6T1arlZuOgRu6QzFgH-51" value="" style="endArrow=none;html=1;rounded=0;entryX=0.5;entryY=1;entryDx=0;entryDy=0;exitX=0.5;exitY=0;exitDx=0;exitDy=0;" edge="1" parent="1" source="in6T1arlZuOgRu6QzFgH-43" target="in6T1arlZuOgRu6QzFgH-19">
          <mxGeometry width="50" height="50" relative="1" as="geometry">
            <mxPoint x="250" y="470" as="sourcePoint" />
            <mxPoint x="300" y="420" as="targetPoint" />
          </mxGeometry>
        </mxCell>
        <mxCell id="in6T1arlZuOgRu6QzFgH-52" value="" style="endArrow=none;html=1;rounded=0;entryX=0.5;entryY=1;entryDx=0;entryDy=0;exitX=0.5;exitY=0;exitDx=0;exitDy=0;" edge="1" parent="1" source="in6T1arlZuOgRu6QzFgH-45" target="in6T1arlZuOgRu6QzFgH-19">
          <mxGeometry width="50" height="50" relative="1" as="geometry">
            <mxPoint x="250" y="470" as="sourcePoint" />
            <mxPoint x="300" y="420" as="targetPoint" />
          </mxGeometry>
        </mxCell>
        <mxCell id="in6T1arlZuOgRu6QzFgH-53" value="" style="endArrow=none;html=1;rounded=0;entryX=0.5;entryY=1;entryDx=0;entryDy=0;exitX=0.5;exitY=0;exitDx=0;exitDy=0;" edge="1" parent="1" source="in6T1arlZuOgRu6QzFgH-46" target="in6T1arlZuOgRu6QzFgH-19">
          <mxGeometry width="50" height="50" relative="1" as="geometry">
            <mxPoint x="250" y="470" as="sourcePoint" />
            <mxPoint x="300" y="420" as="targetPoint" />
          </mxGeometry>
        </mxCell>
        <mxCell id="in6T1arlZuOgRu6QzFgH-55" value="Номер телефона" style="ellipse;whiteSpace=wrap;html=1;" vertex="1" parent="1">
          <mxGeometry x="945" y="530" width="110" height="50" as="geometry" />
        </mxCell>
        <mxCell id="in6T1arlZuOgRu6QzFgH-56" value="" style="endArrow=none;html=1;rounded=0;exitX=0.5;exitY=0;exitDx=0;exitDy=0;entryX=0.5;entryY=1;entryDx=0;entryDy=0;" edge="1" parent="1" source="in6T1arlZuOgRu6QzFgH-48" target="in6T1arlZuOgRu6QzFgH-20">
          <mxGeometry width="50" height="50" relative="1" as="geometry">
            <mxPoint x="435" y="510" as="sourcePoint" />
            <mxPoint x="780" y="500" as="targetPoint" />
          </mxGeometry>
        </mxCell>
        <mxCell id="in6T1arlZuOgRu6QzFgH-57" value="" style="endArrow=none;html=1;rounded=0;entryX=0.5;entryY=1;entryDx=0;entryDy=0;exitX=0.5;exitY=0;exitDx=0;exitDy=0;" edge="1" parent="1" source="in6T1arlZuOgRu6QzFgH-47" target="in6T1arlZuOgRu6QzFgH-20">
          <mxGeometry width="50" height="50" relative="1" as="geometry">
            <mxPoint x="435" y="510" as="sourcePoint" />
            <mxPoint x="485" y="460" as="targetPoint" />
          </mxGeometry>
        </mxCell>
        <mxCell id="in6T1arlZuOgRu6QzFgH-58" value="" style="endArrow=none;html=1;rounded=0;entryX=0.5;entryY=1;entryDx=0;entryDy=0;exitX=0.5;exitY=0;exitDx=0;exitDy=0;" edge="1" parent="1" source="in6T1arlZuOgRu6QzFgH-49" target="in6T1arlZuOgRu6QzFgH-20">
          <mxGeometry width="50" height="50" relative="1" as="geometry">
            <mxPoint x="435" y="510" as="sourcePoint" />
            <mxPoint x="485" y="460" as="targetPoint" />
          </mxGeometry>
        </mxCell>
        <mxCell id="in6T1arlZuOgRu6QzFgH-59" value="" style="endArrow=none;html=1;rounded=0;entryX=0.5;entryY=1;entryDx=0;entryDy=0;exitX=0.5;exitY=0;exitDx=0;exitDy=0;" edge="1" parent="1" source="in6T1arlZuOgRu6QzFgH-55" target="in6T1arlZuOgRu6QzFgH-20">
          <mxGeometry width="50" height="50" relative="1" as="geometry">
            <mxPoint x="435" y="510" as="sourcePoint" />
            <mxPoint x="485" y="460" as="targetPoint" />
          </mxGeometry>
        </mxCell>
        <mxCell id="in6T1arlZuOgRu6QzFgH-60" value="Данные о клиенте входят в состав заказа" style="rhombus;whiteSpace=wrap;html=1;" vertex="1" parent="1">
          <mxGeometry x="280" y="160" width="180" height="90" as="geometry" />
        </mxCell>
        <mxCell id="in6T1arlZuOgRu6QzFgH-61" value="" style="endArrow=none;html=1;rounded=0;entryX=0;entryY=0.5;entryDx=0;entryDy=0;exitX=1;exitY=0.5;exitDx=0;exitDy=0;" edge="1" parent="1" source="in6T1arlZuOgRu6QzFgH-16" target="in6T1arlZuOgRu6QzFgH-60">
          <mxGeometry width="50" height="50" relative="1" as="geometry">
            <mxPoint x="60" y="385" as="sourcePoint" />
            <mxPoint x="110" y="335" as="targetPoint" />
          </mxGeometry>
        </mxCell>
        <mxCell id="in6T1arlZuOgRu6QzFgH-62" value="" style="endArrow=none;html=1;rounded=0;exitX=0;exitY=0.5;exitDx=0;exitDy=0;" edge="1" parent="1" source="in6T1arlZuOgRu6QzFgH-18">
          <mxGeometry width="50" height="50" relative="1" as="geometry">
            <mxPoint x="30" y="385" as="sourcePoint" />
            <mxPoint x="460" y="205" as="targetPoint" />
          </mxGeometry>
        </mxCell>
        <mxCell id="in6T1arlZuOgRu6QzFgH-64" value="1" style="text;html=1;align=center;verticalAlign=middle;resizable=0;points=[];autosize=1;strokeColor=none;fillColor=none;" vertex="1" parent="1">
          <mxGeometry x="245" y="180" width="30" height="30" as="geometry" />
        </mxCell>
        <mxCell id="in6T1arlZuOgRu6QzFgH-65" value="М" style="text;html=1;align=center;verticalAlign=middle;resizable=0;points=[];autosize=1;strokeColor=none;fillColor=none;" vertex="1" parent="1">
          <mxGeometry x="465" y="180" width="30" height="30" as="geometry" />
        </mxCell>
        <mxCell id="in6T1arlZuOgRu6QzFgH-66" value="Данные о продукте входят в состав заказа" style="rhombus;whiteSpace=wrap;html=1;" vertex="1" parent="1">
          <mxGeometry x="630" y="160" width="180" height="90" as="geometry" />
        </mxCell>
        <mxCell id="in6T1arlZuOgRu6QzFgH-68" value="" style="endArrow=none;html=1;rounded=0;entryX=1;entryY=0.5;entryDx=0;entryDy=0;exitX=0;exitY=0.5;exitDx=0;exitDy=0;" edge="1" parent="1" source="in6T1arlZuOgRu6QzFgH-66" target="in6T1arlZuOgRu6QzFgH-18">
          <mxGeometry width="50" height="50" relative="1" as="geometry">
            <mxPoint x="510" y="205" as="sourcePoint" />
            <mxPoint x="560" y="155" as="targetPoint" />
          </mxGeometry>
        </mxCell>
        <mxCell id="in6T1arlZuOgRu6QzFgH-69" value="" style="endArrow=none;html=1;rounded=0;exitX=0;exitY=0.5;exitDx=0;exitDy=0;" edge="1" parent="1" source="in6T1arlZuOgRu6QzFgH-17">
          <mxGeometry width="50" height="50" relative="1" as="geometry">
            <mxPoint x="495" y="205" as="sourcePoint" />
            <mxPoint x="810" y="205" as="targetPoint" />
          </mxGeometry>
        </mxCell>
        <mxCell id="in6T1arlZuOgRu6QzFgH-70" value="М" style="text;html=1;align=center;verticalAlign=middle;resizable=0;points=[];autosize=1;strokeColor=none;fillColor=none;" vertex="1" parent="1">
          <mxGeometry x="605" y="180" width="30" height="30" as="geometry" />
        </mxCell>
        <mxCell id="in6T1arlZuOgRu6QzFgH-71" value="1" style="text;html=1;align=center;verticalAlign=middle;resizable=0;points=[];autosize=1;strokeColor=none;fillColor=none;" vertex="1" parent="1">
          <mxGeometry x="810" y="180" width="30" height="30" as="geometry" />
        </mxCell>
        <mxCell id="in6T1arlZuOgRu6QzFgH-74" style="edgeStyle=orthogonalEdgeStyle;rounded=0;orthogonalLoop=1;jettySize=auto;html=1;exitX=1;exitY=0.5;exitDx=0;exitDy=0;entryX=0;entryY=0.5;entryDx=0;entryDy=0;endArrow=none;endFill=0;" edge="1" parent="1" source="in6T1arlZuOgRu6QzFgH-73" target="in6T1arlZuOgRu6QzFgH-19">
          <mxGeometry relative="1" as="geometry">
            <mxPoint x="450" y="480" as="targetPoint" />
            <mxPoint x="410" y="465" as="sourcePoint" />
          </mxGeometry>
        </mxCell>
        <mxCell id="in6T1arlZuOgRu6QzFgH-73" value="Данные о продукте входят в состав поставки" style="rhombus;whiteSpace=wrap;html=1;" vertex="1" parent="1">
          <mxGeometry x="230" y="425" width="180" height="90" as="geometry" />
        </mxCell>
        <mxCell id="in6T1arlZuOgRu6QzFgH-77" value="М" style="text;html=1;align=center;verticalAlign=middle;resizable=0;points=[];autosize=1;strokeColor=none;fillColor=none;" vertex="1" parent="1">
          <mxGeometry x="444" y="444" width="30" height="30" as="geometry" />
        </mxCell>
        <mxCell id="in6T1arlZuOgRu6QzFgH-78" value="1" style="text;html=1;align=center;verticalAlign=middle;resizable=0;points=[];autosize=1;strokeColor=none;fillColor=none;" vertex="1" parent="1">
          <mxGeometry x="949" y="180" width="30" height="30" as="geometry" />
        </mxCell>
        <mxCell id="in6T1arlZuOgRu6QzFgH-79" value="Данные о поставщике входят в состав поставки" style="rhombus;whiteSpace=wrap;html=1;" vertex="1" parent="1">
          <mxGeometry x="620" y="425" width="180" height="90" as="geometry" />
        </mxCell>
        <mxCell id="in6T1arlZuOgRu6QzFgH-80" value="" style="endArrow=none;html=1;rounded=0;entryX=1;entryY=0.5;entryDx=0;entryDy=0;" edge="1" parent="1" source="in6T1arlZuOgRu6QzFgH-79" target="in6T1arlZuOgRu6QzFgH-19">
          <mxGeometry width="50" height="50" relative="1" as="geometry">
            <mxPoint x="680" y="655" as="sourcePoint" />
            <mxPoint x="730" y="605" as="targetPoint" />
          </mxGeometry>
        </mxCell>
        <mxCell id="in6T1arlZuOgRu6QzFgH-81" value="" style="endArrow=none;html=1;rounded=0;entryX=1;entryY=0.5;entryDx=0;entryDy=0;exitX=0;exitY=0.5;exitDx=0;exitDy=0;" edge="1" parent="1" source="in6T1arlZuOgRu6QzFgH-20" target="in6T1arlZuOgRu6QzFgH-79">
          <mxGeometry width="50" height="50" relative="1" as="geometry">
            <mxPoint x="680" y="655" as="sourcePoint" />
            <mxPoint x="730" y="605" as="targetPoint" />
          </mxGeometry>
        </mxCell>
        <mxCell id="in6T1arlZuOgRu6QzFgH-82" value="М" style="text;html=1;align=center;verticalAlign=middle;resizable=0;points=[];autosize=1;strokeColor=none;fillColor=none;" vertex="1" parent="1">
          <mxGeometry x="585" y="444" width="30" height="30" as="geometry" />
        </mxCell>
        <mxCell id="in6T1arlZuOgRu6QzFgH-84" value="1" style="text;html=1;align=center;verticalAlign=middle;resizable=0;points=[];autosize=1;strokeColor=none;fillColor=none;" vertex="1" parent="1">
          <mxGeometry x="810" y="444" width="30" height="30" as="geometry" />
        </mxCell>
      </root>
    </mxGraphModel>
  </diagram>
</mxfile>
